<?xml version="1.0" standalone="no"?>
<!DOCTYPE svg PUBLIC "-//W3C//DTD SVG 20010904//EN"
 "http://www.w3.org/TR/2001/REC-SVG-20010904/DTD/svg10.dtd">
<svg version="1.0" xmlns="http://www.w3.org/2000/svg"
 width="814.000000pt" height="1000.000000pt" viewBox="0 0 814.000000 1000.000000"
 preserveAspectRatio="xMidYMid meet">

<g transform="translate(0.000000,1000.000000) scale(0.100000,-0.100000)"
fill="#000000" stroke="none">
<path d="M5894 9984 c-326 -45 -739 -237 -1049 -487 -100 -81 -272 -258 -352
-363 -276 -362 -442 -787 -459 -1172 -6 -116 5 -245 21 -261 4 -3 66 -6 138
-6 210 1 416 55 662 175 427 206 761 548 985 1005 120 244 183 447 215 688 15
121 19 307 7 387 -6 41 -9 45 -37 47 -16 1 -76 -5 -131 -13z"/>
<path d="M5673 7570 c-215 -27 -473 -98 -757 -206 -559 -215 -627 -235 -776
-237 -154 -2 -268 31 -670 190 -394 157 -597 213 -840 234 -427 36 -942 -96
-1344 -345 -702 -435 -1140 -1180 -1263 -2151 -22 -173 -25 -708 -5 -910 85
-872 358 -1740 780 -2485 214 -378 683 -1004 934 -1246 314 -303 607 -432 933
-410 209 15 358 56 660 181 110 46 254 101 320 124 339 114 709 132 1050 51
145 -34 216 -60 450 -160 294 -125 416 -160 643 -181 429 -39 816 158 1202
611 288 337 585 775 788 1160 116 221 238 503 321 744 45 131 46 136 29 136
-7 0 -57 23 -111 50 -369 186 -720 512 -923 856 -314 534 -383 1209 -183 1809
147 442 460 852 872 1139 l97 68 -55 71 c-278 359 -598 600 -1003 757 -145 56
-334 104 -529 136 -116 18 -512 27 -620 14z"/>
</g>
</svg>
