<?xml version="1.0" standalone="no"?>
<!DOCTYPE svg PUBLIC "-//W3C//DTD SVG 20010904//EN"
 "http://www.w3.org/TR/2001/REC-SVG-20010904/DTD/svg10.dtd">
<svg version="1.0" xmlns="http://www.w3.org/2000/svg"
 width="1200.000000pt" height="1422.000000pt" viewBox="0 0 1200.000000 1422.000000"
 preserveAspectRatio="xMidYMid meet">

<g transform="translate(0.000000,1422.000000) scale(0.100000,-0.100000)"
fill="#000000" stroke="none">
<path d="M5750 14214 c-876 -80 -1502 -629 -1694 -1486 -58 -258 -61 -315 -61
-1038 0 -750 12 -1033 76 -1825 29 -369 14 -500 -80 -700 -47 -99 -77 -138
-273 -362 -623 -710 -701 -804 -850 -1028 -176 -264 -237 -410 -357 -850 -85
-312 -157 -512 -291 -805 -57 -125 -100 -211 -383 -760 -61 -118 -122 -252
-143 -315 -34 -100 -38 -122 -42 -246 -3 -102 0 -157 12 -220 15 -73 60 -228
73 -252 3 -5 30 16 60 47 66 67 122 101 199 121 203 53 431 -50 622 -281 122
-148 461 -637 644 -929 41 -66 151 -248 243 -405 92 -157 197 -330 233 -385
95 -147 113 -178 216 -383 105 -210 151 -308 172 -368 7 -23 21 -59 31 -80 9
-21 17 -41 18 -44 0 -3 10 -36 22 -75 54 -179 62 -232 59 -395 -2 -146 -4
-161 -35 -250 -53 -150 -115 -246 -224 -346 -105 -95 -240 -166 -373 -195 -59
-12 -277 -17 -324 -7 -14 3 -43 9 -65 13 -22 4 -67 15 -100 25 -33 10 -100 30
-150 45 -49 15 -142 45 -205 67 -63 21 -119 40 -125 41 -5 2 -16 6 -22 10 -7
5 -13 6 -13 3 0 -3 -26 4 -57 15 -32 11 -69 22 -83 24 -14 3 -91 20 -172 39
-81 19 -169 37 -195 41 -27 3 -59 8 -73 10 -14 2 -43 6 -65 10 -22 3 -53 8
-70 11 -16 3 -66 11 -110 19 -44 8 -96 16 -115 19 -19 3 -58 10 -87 15 -29 6
-74 13 -100 16 -26 4 -55 8 -63 10 -8 2 -28 7 -45 10 -16 2 -41 7 -55 10 -14
3 -41 8 -60 11 -19 3 -38 8 -41 10 -3 2 -50 13 -105 24 -54 12 -110 25 -124
29 -14 5 -50 14 -80 21 -171 39 -401 104 -473 134 -81 35 -226 144 -220 167 2
5 -2 9 -7 9 -6 0 -22 25 -36 55 -15 31 -31 52 -37 48 -6 -4 -7 -1 -2 7 4 7 2
15 -4 19 -6 4 -13 25 -15 46 -2 22 -9 41 -15 43 -9 3 -9 7 0 18 10 13 18 60
19 111 0 13 4 23 8 23 5 0 9 28 10 63 l2 62 -45 -85 c-86 -165 -118 -322 -86
-428 42 -140 148 -214 407 -287 71 -20 226 -67 344 -105 338 -108 482 -146
945 -250 558 -126 824 -206 1182 -358 358 -153 483 -187 683 -186 165 1 270
24 408 89 239 113 429 325 512 570 l17 50 134 27 c326 66 680 94 1099 85 718
-16 1383 -114 2140 -317 29 -8 40 -20 65 -67 119 -228 479 -413 858 -439 184
-13 375 29 562 121 148 73 246 149 463 356 268 255 341 319 498 437 197 149
366 247 754 439 467 232 580 299 706 420 94 90 207 273 170 273 -20 0 -156
-80 -156 -91 0 -5 -6 -9 -12 -9 -7 0 -32 -19 -56 -41 -23 -22 -65 -56 -92 -75
-51 -35 -198 -124 -205 -124 -3 0 -37 -15 -77 -34 -99 -45 -259 -103 -378
-136 -36 -10 -112 -35 -170 -55 -58 -20 -112 -38 -120 -40 -8 -2 -16 -4 -17
-5 -2 -2 -6 -3 -10 -4 -5 -1 -25 -10 -47 -19 -21 -9 -42 -17 -47 -17 -5 0 -9
-5 -9 -12 0 -6 -3 -9 -6 -6 -7 8 -150 -59 -190 -89 -17 -13 -34 -23 -39 -23
-4 0 -30 -16 -56 -35 -27 -19 -54 -35 -59 -35 -6 0 -10 -3 -10 -7 0 -5 -21
-21 -48 -38 -26 -16 -80 -54 -120 -85 -41 -30 -86 -62 -100 -70 -15 -8 -29
-18 -32 -21 -3 -3 -36 -27 -74 -54 -38 -26 -77 -56 -88 -67 -10 -10 -23 -16
-28 -13 -6 4 -10 2 -10 -4 0 -5 -26 -24 -57 -43 -32 -18 -71 -41 -88 -50 -45
-27 -119 -61 -127 -60 -5 1 -8 -3 -8 -9 0 -5 -4 -7 -10 -4 -5 3 -10 1 -10 -4
0 -6 -3 -10 -7 -9 -5 1 -53 -12 -108 -29 -129 -41 -159 -46 -282 -47 -55 -1
-99 -4 -96 -8 2 -5 -1 -8 -6 -8 -6 0 -11 4 -11 9 0 5 -29 12 -64 16 -54 5
-107 16 -186 36 -8 2 -17 7 -20 10 -3 3 -25 13 -50 23 -70 27 -149 79 -214
141 -71 68 -168 247 -180 334 -2 14 -11 62 -20 106 -13 62 -15 120 -12 260 3
99 7 196 10 215 24 153 38 463 32 685 -4 132 -9 256 -10 275 -8 74 -16 328
-21 617 -6 312 -10 431 -21 568 -3 44 -7 115 -8 157 -2 43 -5 80 -8 84 -3 3
-12 -12 -20 -33 -10 -29 -12 -88 -8 -258 3 -121 5 -407 5 -636 l0 -416 -86
-94 c-98 -106 -477 -467 -614 -584 -430 -368 -836 -574 -1299 -660 -553 -102
-1135 -24 -1631 219 l-150 74 -56 78 c-31 44 -129 169 -218 278 -88 110 -159
201 -157 203 2 2 28 -3 59 -11 133 -35 253 -30 372 15 83 31 173 121 205 204
43 113 28 261 -40 394 -78 156 -189 268 -531 538 -395 312 -724 590 -1020 865
l-136 126 -6 94 c-8 128 8 449 33 643 93 728 363 1445 808 2149 l75 119 2 156
c4 240 48 417 160 642 70 140 135 243 310 494 81 116 169 255 196 310 71 145
88 223 99 455 11 229 19 335 27 355 11 31 108 -72 279 -297 226 -296 385 -393
660 -405 145 -7 266 11 427 64 106 34 295 123 347 162 24 19 24 19 -30 5 -125
-33 -248 -47 -405 -47 -230 -1 -368 29 -551 119 -49 24 -103 44 -120 44 -42 0
-118 74 -104 101 14 25 29 27 205 32 229 7 574 69 775 139 190 66 382 185 588
363 45 39 132 99 194 135 92 54 113 70 120 95 10 41 -1 48 -56 34 -38 -9 -66
-29 -133 -91 -148 -137 -397 -316 -550 -396 -117 -61 -221 -98 -378 -137 -239
-58 -322 -69 -520 -69 -155 -1 -193 3 -270 22 -117 30 -209 75 -325 162 -102
76 -171 116 -235 135 l-40 12 -3 179 c-1 98 0 188 2 200 3 11 41 59 85 106
l80 85 -36 34 c-108 103 -170 257 -198 499 -15 119 -30 513 -19 479 4 -13 18
-3 59 40 54 57 54 57 48 108 -8 75 4 134 42 197 18 31 31 56 27 56 -3 0 0 6 6
12 7 7 20 13 30 13 9 0 16 5 15 12 -2 7 3 10 11 7 8 -3 17 0 22 7 5 8 3 10 -6
4 -9 -6 -11 -4 -6 4 5 7 14 10 22 7 8 -3 14 -1 14 4 0 5 7 6 17 3 11 -5 14 -3
8 6 -5 10 -2 11 14 6 11 -3 21 -3 21 2 0 4 37 8 83 7 67 0 93 -5 142 -27 33
-15 71 -40 85 -55 14 -15 21 -21 15 -12 -6 10 -2 8 13 -4 23 -20 30 -32 12
-21 -14 9 -13 6 15 -49 14 -27 25 -59 25 -71 0 -18 7 -24 41 -29 22 -4 45 -3
51 0 7 4 8 2 4 -4 -4 -7 -2 -12 3 -12 14 0 73 -118 99 -200 27 -82 48 -185 57
-277 l7 -73 -69 -102 c-38 -57 -73 -108 -77 -115 -3 -6 29 1 73 17 144 53 268
73 421 67 136 -4 222 -24 351 -80 l37 -16 -55 112 c-30 62 -64 124 -75 139
-30 43 -44 180 -30 291 6 51 19 114 28 141 15 45 21 51 78 76 33 15 86 35 116
45 l55 17 85 147 c47 80 84 152 84 158 -1 7 2 10 7 7 5 -3 9 -1 9 5 0 13 128
41 193 41 73 0 195 -33 270 -72 81 -43 196 -153 258 -247 220 -336 207 -931
-27 -1189 l-54 -60 52 -19 c76 -27 123 -75 153 -157 29 -80 33 -168 11 -255
-8 -31 -22 -101 -31 -156 -13 -82 -21 -107 -46 -137 -16 -21 -24 -35 -16 -32
18 7 50 -54 142 -276 42 -102 146 -323 230 -491 85 -168 181 -370 215 -450
114 -265 213 -597 259 -866 l19 -112 67 -73 c369 -403 611 -930 710 -1543 42
-263 50 -380 50 -760 -1 -372 -12 -562 -56 -903 -10 -84 -19 -157 -19 -161 0
-5 26 -12 58 -16 31 -3 66 -9 78 -11 l21 -5 -20 -77 c-16 -61 -20 -112 -21
-242 -1 -145 2 -175 23 -248 53 -186 175 -301 381 -358 36 -9 68 -22 72 -28
14 -21 160 -19 271 4 236 47 414 134 609 298 167 140 331 373 353 503 7 38 9
40 33 34 15 -4 30 -7 35 -8 36 -8 153 482 178 739 42 442 -98 1187 -362 1915
-135 374 -294 696 -493 999 -103 155 -169 238 -327 409 -209 225 -255 279
-407 476 -451 583 -753 1176 -857 1681 -55 267 -69 471 -85 1259 -10 482 -20
616 -61 818 -65 326 -266 736 -498 1020 -352 432 -839 706 -1406 792 -106 16
-437 28 -535 19z m360 -2198 c0 -2 -8 -10 -17 -17 -16 -13 -17 -12 -4 4 13 16
21 21 21 13z m-1039 -123 c13 -16 12 -17 -3 -4 -10 7 -18 15 -18 17 0 8 8 3
21 -13z m2782 -2077 c45 -29 111 -69 147 -89 80 -44 119 -83 130 -133 15 -68
-12 -149 -54 -160 -35 -8 -91 22 -130 70 -27 33 -100 159 -183 316 -15 30 -17
50 -3 50 6 0 47 -24 93 -54z"/>
<path d="M6405 11662 c-149 -72 -229 -223 -229 -432 0 -128 25 -219 81 -299
33 -48 51 -61 138 -105 82 -41 112 -50 165 -54 303 -19 486 406 306 712 -35
61 -128 143 -193 173 -41 19 -79 28 -133 30 -67 4 -82 1 -135 -25z m333 -261
c2 -13 -2 -21 -11 -21 -22 0 -50 37 -43 56 6 15 9 15 29 1 12 -8 23 -24 25
-36z"/>
<path d="M4640 11635 c-105 -48 -161 -174 -163 -370 -1 -104 14 -177 54 -257
37 -73 137 -180 194 -208 l44 -21 75 59 c41 33 100 75 130 94 68 40 79 70 79
208 0 271 -142 490 -327 506 -33 3 -63 -1 -86 -11z"/>
<path d="M5735 10936 c-18 -13 -17 -14 10 -32 18 -12 52 -20 97 -22 63 -4 68
-3 68 16 0 40 -133 69 -175 38z"/>
<path d="M5093 10906 c-27 -33 -28 -40 -10 -54 22 -19 39 2 35 44 l-3 39 -22
-29z"/>
<path d="M162 1735 c-6 -13 -7 -27 -3 -30 5 -2 12 7 15 21 9 35 2 40 -12 9z"/>
</g>
</svg>
